 http://desibbrg.org/images/66952052392581364616.gif 
http://desibbrg.org/images/04679083202568465799.png 
http://desibbrg.org/images/18608599656630115873.png 
http://desibbrg.org/images/87292303370872670756.png 
http://desibbrg.org/images/13792253980844244882.png

Media Info - 
Video
ID : 1
Format : AVC
Format/Info : Advanced Video Codec
Format profile : High@L4.1
Format settings, CABAC : Yes
Format settings, ReFrames : 8 frames
Codec ID : V_MPEG4/ISO/AVC
Duration : 2h 23mn
Bit rate : 1 856 Kbps
Width : 1 280 pixels
Height : 544 pixels
Display aspect ratio : 2.35:1
Frame rate : 24.000 fps
Color space : YUV
Chroma subsampling : 4:2:0
Bit depth : 8 bits
Scan type : Progressive
Bits/(Pixel*Frame) : 0.111
Stream size : 1.78 GiB (83%)
Writing library : x264 core 112 r1867 22bfd31
Language : English
Default : Yes
Forced : No
Color primaries : BT.709-5, BT.1361, IEC 61966-2-4, SMPTE RP177
Transfer characteristics : BT.709-5, BT.1361
Matrix coefficients : BT.709-5, BT.1361, IEC 61966-2-4 709, SMPTE RP177

Audio
ID : 2
Format : AC-3
Format/Info : Audio Coding 3
Mode extension : CM (complete main)
Codec ID : A_AC3
Duration : 2h 23mn
Bit rate mode : Constant
Bit rate : 320 Kbps
Channel(s) : 6 channels
Channel positions : Front: L C R, Side: L R, LFE
Sampling rate : 48.0 KHz
Bit depth : 16 bits
Compression mode : Lossy
Stream size : 327 MiB (15%)
Language : English
Default : Yes
Forced : Yes

Ripper : NhaNc3

Seeding 24x7... Extreme Seeding...


Enjoy!
